<svg version="1.1" id="Layer_1" xmlns="http://www.w3.org/2000/svg" xmlns:xlink="http://www.w3.org/1999/xlink" x="0px" y="0px"
	 width="100%" viewBox="0 0 340 338" enable-background="new 0 0 340 338" xml:space="preserve">
<path fill="#030302" opacity="1.000000" stroke="none" 
	d="
M1.000000,124.000000 
	C1.000000,82.666672 1.000000,41.833347 1.000000,1.000016 
	C114.333305,1.000011 227.666611,1.000011 340.999939,1.000005 
	C340.999939,113.666618 340.999939,226.333237 340.999969,338.999878 
	C227.666733,338.999939 114.333473,338.999939 1.000102,338.999969 
	C1.000000,267.500000 1.000000,196.000000 1.000000,124.000000 
M282.887970,163.588806 
	C278.827667,157.300385 274.778351,151.004822 270.701324,144.727264 
	C269.190948,142.401718 269.232605,140.425339 271.039185,138.067368 
	C283.301697,122.061989 287.574585,103.976639 285.159637,84.036423 
	C283.596680,71.131004 281.016541,68.963219 268.165955,70.231445 
	C251.974487,71.829369 237.617386,77.656891 224.824463,87.674896 
	C223.304749,88.864967 220.464935,89.760490 218.806885,89.176018 
	C189.540924,78.859550 160.130417,78.485817 130.722916,88.026535 
	C125.357216,89.767334 121.921715,89.197357 117.446938,85.826866 
	C102.789833,74.786873 86.321892,68.885307 67.611656,70.457405 
	C64.000313,70.760826 62.492256,72.314468 61.630623,75.762680 
	C56.082047,97.967819 59.955631,118.370323 73.393158,136.779449 
	C75.973557,140.314545 75.762794,142.994980 73.606773,146.023788 
	C63.204857,160.636475 52.832291,175.272507 42.213924,189.727325 
	C38.552162,194.712082 34.209251,199.196487 30.739162,203.252884 
	C46.594208,206.528793 62.328526,209.779755 78.001060,213.017944 
	C72.407402,205.921936 63.683403,202.892502 55.428680,198.471298 
	C65.205612,189.165680 77.125549,185.710266 89.980843,182.878082 
	C84.912476,179.765976 80.760803,177.216751 76.609131,174.667511 
	C76.676193,174.174576 76.743256,173.681656 76.810318,173.188721 
	C81.670067,171.797684 86.468964,170.109528 91.406517,169.098465 
	C96.427689,168.070282 101.665222,168.046417 103.641632,161.804337 
	C104.073738,160.439651 105.919304,159.444733 107.243881,158.453140 
	C115.367912,152.371429 124.012573,152.033951 132.404358,157.362930 
	C141.768494,163.309448 150.707596,169.925278 160.820358,176.935104 
	C161.908463,173.041016 163.538681,169.091583 164.040787,165.003586 
	C164.982697,157.334549 162.521805,149.541382 165.082062,141.809616 
	C166.850861,136.468002 167.752533,130.838364 169.024811,125.333519 
	C170.036774,120.955048 171.023193,116.570656 172.020966,112.188896 
	C172.448792,112.192314 172.876633,112.195740 173.304459,112.199158 
	C174.265289,116.889679 175.023651,121.632812 176.226334,126.260475 
	C179.358734,138.313293 182.992569,150.206482 181.028610,163.003372 
	C180.264755,167.980560 181.796616,172.812866 186.129501,176.570633 
	C188.122803,174.952957 189.822083,173.371460 191.715363,172.072769 
	C199.510605,166.725601 207.097672,161.001282 215.265518,156.289734 
	C225.274399,150.516159 237.702606,154.431992 243.139725,164.545517 
	C244.499146,167.074173 246.110001,167.879608 248.825638,168.370346 
	C255.386597,169.555969 261.841736,171.327164 268.339539,172.862289 
	C268.355682,173.393921 268.371826,173.925537 268.388000,174.457169 
	C264.255127,177.162491 260.122253,179.867813 255.093552,183.159531 
	C268.393951,185.477493 279.700226,189.752350 289.149841,198.038239 
	C281.199219,203.090225 273.564758,207.941330 265.930298,212.792435 
	C266.123016,212.963547 266.315735,213.134659 266.508453,213.305771 
	C282.433319,209.930283 298.358154,206.554779 313.548584,203.334961 
	C303.905914,190.879410 293.582214,177.544144 282.887970,163.588806 
M15.820513,120.298172 
	C6.785828,148.106018 5.705148,176.222336 12.416562,205.644012 
	C18.949427,197.307449 25.157352,189.793533 30.835711,181.898712 
	C32.612812,179.427948 33.899624,175.903809 33.814007,172.907471 
	C33.248486,153.116470 37.048077,134.185150 44.548286,116.000481 
	C46.387177,111.541977 47.124271,107.378227 46.823505,102.564003 
	C45.972504,88.942421 47.849220,75.651489 53.805954,63.203434 
	C54.553318,61.641636 56.307594,59.598885 57.734062,59.482731 
	C66.319794,58.783607 74.961548,58.136444 83.550911,58.436165 
	C86.905907,58.553242 89.394371,58.409935 92.139679,56.397060 
	C121.472290,34.890133 154.532486,27.266159 190.292862,31.284966 
	C213.875687,33.935238 235.102188,43.103214 254.285187,57.090275 
	C255.793701,58.190189 258.151428,58.432697 260.138062,58.516781 
	C269.056488,58.894230 277.995819,58.886639 286.895996,59.486671 
	C288.515625,59.595856 290.669739,61.579704 291.420776,63.225750 
	C297.701630,76.991165 299.983795,91.443558 298.285553,106.527405 
	C298.073883,108.407562 298.222992,110.577820 298.969269,112.278244 
	C307.601593,131.947922 311.838257,152.437988 310.999054,173.947433 
	C310.936249,175.557617 310.811035,177.614990 311.666992,178.740082 
	C318.366180,187.545670 325.298218,196.174118 332.364258,205.117813 
	C350.640686,134.571289 313.170593,43.897091 224.502350,13.553436 
	C138.608841,-15.840668 43.751820,32.343784 15.820513,120.298172 
M86.714935,277.791565 
	C84.792458,276.202057 82.821510,274.667267 80.955200,273.014313 
	C66.420479,260.141235 55.261917,244.775024 47.061104,227.201462 
	C46.257214,225.478806 45.135139,223.005356 43.697681,222.623474 
	C34.318317,220.131699 24.811129,218.121063 14.996479,215.873108 
	C36.765522,287.785522 107.028839,339.523376 186.827469,332.664825 
	C261.709320,326.228882 315.587219,269.787384 329.374359,215.994370 
	C321.360779,217.873581 313.670197,219.926758 305.870758,221.405807 
	C301.665924,222.203171 299.506470,224.228485 297.627014,228.082275 
	C278.185699,267.946472 247.281876,294.107697 203.828430,304.186707 
	C161.010895,314.118225 122.090912,305.020630 86.714935,277.791565 
M208.046692,234.327454 
	C205.868042,217.943771 197.178070,206.022964 183.015488,197.153641 
	C182.039948,199.470001 181.304977,201.215149 180.409760,203.340775 
	C175.132614,198.737000 169.900986,199.603470 164.773010,203.263519 
	C163.939438,201.221161 163.231247,199.486008 162.376831,197.392609 
	C149.213150,204.755325 141.461838,215.567398 137.914047,229.618134 
	C136.308640,235.976135 138.634811,240.898605 143.110413,245.281158 
	C155.805740,257.712585 170.710800,260.493561 187.176208,254.977615 
	C197.015533,251.681442 204.410995,245.256500 208.046692,234.327454 
M221.946655,170.594971 
	C213.021515,174.599060 204.096375,178.603165 194.598892,182.864029 
	C210.010666,192.251984 224.695160,182.760925 227.820892,168.363647 
	C225.956818,169.023239 224.265961,169.621552 221.946655,170.594971 
M139.049576,177.518066 
	C131.850388,174.371384 124.651192,171.224716 116.930840,167.850250 
	C120.481468,182.373520 136.358826,193.163727 150.226654,182.562988 
	C146.578156,180.909485 143.163727,179.362061 139.049576,177.518066 
z"/>
<path fill="#FAFAF9" opacity="1.000000" stroke="none" 
	d="
M283.073242,163.898834 
	C293.582214,177.544144 303.905914,190.879410 313.548584,203.334961 
	C298.358154,206.554779 282.433319,209.930283 266.508453,213.305771 
	C266.315735,213.134659 266.123016,212.963547 265.930298,212.792435 
	C273.564758,207.941330 281.199219,203.090225 289.149841,198.038239 
	C279.700226,189.752350 268.393951,185.477493 255.093552,183.159531 
	C260.122253,179.867813 264.255127,177.162491 268.388000,174.457169 
	C268.371826,173.925537 268.355682,173.393921 268.339539,172.862289 
	C261.841736,171.327164 255.386597,169.555969 248.825638,168.370346 
	C246.110001,167.879608 244.499146,167.074173 243.139725,164.545517 
	C237.702606,154.431992 225.274399,150.516159 215.265518,156.289734 
	C207.097672,161.001282 199.510605,166.725601 191.715363,172.072769 
	C189.822083,173.371460 188.122803,174.952957 186.129501,176.570633 
	C181.796616,172.812866 180.264755,167.980560 181.028610,163.003372 
	C182.992569,150.206482 179.358734,138.313293 176.226334,126.260475 
	C175.023651,121.632812 174.265289,116.889679 173.304459,112.199158 
	C172.876633,112.195740 172.448792,112.192314 172.020966,112.188896 
	C171.023193,116.570656 170.036774,120.955048 169.024811,125.333519 
	C167.752533,130.838364 166.850861,136.468002 165.082062,141.809616 
	C162.521805,149.541382 164.982697,157.334549 164.040787,165.003586 
	C163.538681,169.091583 161.908463,173.041016 160.820358,176.935104 
	C150.707596,169.925278 141.768494,163.309448 132.404358,157.362930 
	C124.012573,152.033951 115.367912,152.371429 107.243881,158.453140 
	C105.919304,159.444733 104.073738,160.439651 103.641632,161.804337 
	C101.665222,168.046417 96.427689,168.070282 91.406517,169.098465 
	C86.468964,170.109528 81.670067,171.797684 76.810318,173.188721 
	C76.743256,173.681656 76.676193,174.174576 76.609131,174.667511 
	C80.760803,177.216751 84.912476,179.765976 89.980843,182.878082 
	C77.125549,185.710266 65.205612,189.165680 55.428680,198.471298 
	C63.683403,202.892502 72.407402,205.921936 78.001060,213.017944 
	C62.328526,209.779755 46.594208,206.528793 30.739162,203.252884 
	C34.209251,199.196487 38.552162,194.712082 42.213924,189.727325 
	C52.832291,175.272507 63.204857,160.636475 73.606773,146.023788 
	C75.762794,142.994980 75.973557,140.314545 73.393158,136.779449 
	C59.955631,118.370323 56.082047,97.967819 61.630623,75.762680 
	C62.492256,72.314468 64.000313,70.760826 67.611656,70.457405 
	C86.321892,68.885307 102.789833,74.786873 117.446938,85.826866 
	C121.921715,89.197357 125.357216,89.767334 130.722916,88.026535 
	C160.130417,78.485817 189.540924,78.859550 218.806885,89.176018 
	C220.464935,89.760490 223.304749,88.864967 224.824463,87.674896 
	C237.617386,77.656891 251.974487,71.829369 268.165955,70.231445 
	C281.016541,68.963219 283.596680,71.131004 285.159637,84.036423 
	C287.574585,103.976639 283.301697,122.061989 271.039185,138.067368 
	C269.232605,140.425339 269.190948,142.401718 270.701324,144.727264 
	C274.778351,151.004822 278.827667,157.300385 283.073242,163.898834 
M268.149933,79.565140 
	C257.160858,83.917763 247.561737,90.357956 239.937515,99.386131 
	C236.884781,103.001022 234.733948,107.377586 231.358932,112.687592 
	C239.798584,114.327065 246.324158,115.594711 252.839844,116.860435 
	C251.193771,125.613419 251.688004,126.849541 259.150146,131.733994 
	C259.702637,131.257370 260.365234,130.788788 260.903992,130.205750 
	C272.840759,117.287567 277.970062,102.130096 276.127228,84.573502 
	C275.374908,77.406059 275.559113,77.386726 268.149933,79.565140 
M73.510780,113.912598 
	C76.824295,120.736511 80.347725,127.400513 86.529549,131.851990 
	C93.021935,127.985756 94.729469,122.708275 92.382988,116.785881 
	C99.336723,115.409805 105.704819,114.149620 112.419144,112.820923 
	C111.757263,110.484642 111.507652,109.379890 111.125778,108.322929 
	C110.790497,107.394920 110.421242,106.442863 109.871849,105.633957 
	C101.181435,92.838676 89.513359,83.986443 74.861115,78.955124 
	C70.775223,77.552101 69.429253,79.103020 69.152977,82.900620 
	C68.396797,93.294609 68.809685,103.516937 73.510780,113.912598 
z"/>
<path fill="#FAFAF8" opacity="1.000000" stroke="none" 
	d="
M15.924778,119.915184 
	C43.751820,32.343784 138.608841,-15.840668 224.502350,13.553436 
	C313.170593,43.897091 350.640686,134.571289 332.364258,205.117813 
	C325.298218,196.174118 318.366180,187.545670 311.666992,178.740082 
	C310.811035,177.614990 310.936249,175.557617 310.999054,173.947433 
	C311.838257,152.437988 307.601593,131.947922 298.969269,112.278244 
	C298.222992,110.577820 298.073883,108.407562 298.285553,106.527405 
	C299.983795,91.443558 297.701630,76.991165 291.420776,63.225750 
	C290.669739,61.579704 288.515625,59.595856 286.895996,59.486671 
	C277.995819,58.886639 269.056488,58.894230 260.138062,58.516781 
	C258.151428,58.432697 255.793701,58.190189 254.285187,57.090275 
	C235.102188,43.103214 213.875687,33.935238 190.292862,31.284966 
	C154.532486,27.266159 121.472290,34.890133 92.139679,56.397060 
	C89.394371,58.409935 86.905907,58.553242 83.550911,58.436165 
	C74.961548,58.136444 66.319794,58.783607 57.734062,59.482731 
	C56.307594,59.598885 54.553318,61.641636 53.805954,63.203434 
	C47.849220,75.651489 45.972504,88.942421 46.823505,102.564003 
	C47.124271,107.378227 46.387177,111.541977 44.548286,116.000481 
	C37.048077,134.185150 33.248486,153.116470 33.814007,172.907471 
	C33.899624,175.903809 32.612812,179.427948 30.835711,181.898712 
	C25.157352,189.793533 18.949427,197.307449 12.416562,205.644012 
	C5.705148,176.222336 6.785828,148.106018 15.924778,119.915184 
z"/>
<path fill="#FAFAF9" opacity="1.000000" stroke="none" 
	d="
M87.004456,277.997375 
	C122.090912,305.020630 161.010895,314.118225 203.828430,304.186707 
	C247.281876,294.107697 278.185699,267.946472 297.627014,228.082275 
	C299.506470,224.228485 301.665924,222.203171 305.870758,221.405807 
	C313.670197,219.926758 321.360779,217.873581 329.374359,215.994370 
	C315.587219,269.787384 261.709320,326.228882 186.827469,332.664825 
	C107.028839,339.523376 36.765522,287.785522 14.996479,215.873108 
	C24.811129,218.121063 34.318317,220.131699 43.697681,222.623474 
	C45.135139,223.005356 46.257214,225.478806 47.061104,227.201462 
	C55.261917,244.775024 66.420479,260.141235 80.955200,273.014313 
	C82.821510,274.667267 84.792458,276.202057 87.004456,277.997375 
z"/>
<path fill="#F8F8F6" opacity="1.000000" stroke="none" 
	d="
M208.050903,234.743057 
	C204.410995,245.256500 197.015533,251.681442 187.176208,254.977615 
	C170.710800,260.493561 155.805740,257.712585 143.110413,245.281158 
	C138.634811,240.898605 136.308640,235.976135 137.914047,229.618134 
	C141.461838,215.567398 149.213150,204.755325 162.376831,197.392609 
	C163.231247,199.486008 163.939438,201.221161 164.773010,203.263519 
	C169.900986,199.603470 175.132614,198.737000 180.409760,203.340775 
	C181.304977,201.215149 182.039948,199.470001 183.015488,197.153641 
	C197.178070,206.022964 205.868042,217.943771 208.050903,234.743057 
M171.616302,222.994156 
	C170.951904,222.994247 170.286835,222.974670 169.623215,222.997421 
	C161.695358,223.269272 155.757339,228.401443 155.315659,235.356125 
	C154.795410,243.548096 158.377350,248.232574 167.173279,249.454849 
	C171.504318,250.056702 176.118637,249.670364 180.457520,248.900940 
	C185.944290,247.927948 189.418442,243.513428 189.981598,238.142044 
	C190.594528,232.295898 188.282684,227.178970 183.086121,225.034073 
	C179.839294,223.693939 176.065903,223.629608 171.616302,222.994156 
z"/>
<path fill="#F0F0ED" opacity="1.000000" stroke="none" 
	d="
M222.260864,170.407410 
	C224.265961,169.621552 225.956818,169.023239 227.820892,168.363647 
	C224.695160,182.760925 210.010666,192.251984 194.598892,182.864029 
	C204.096375,178.603165 213.021515,174.599060 222.260864,170.407410 
z"/>
<path fill="#F0F0EE" opacity="1.000000" stroke="none" 
	d="
M139.399445,177.666351 
	C143.163727,179.362061 146.578156,180.909485 150.226654,182.562988 
	C136.358826,193.163727 120.481468,182.373520 116.930840,167.850250 
	C124.651192,171.224716 131.850388,174.371384 139.399445,177.666351 
z"/>
<path fill="#060605" opacity="1.000000" stroke="none" 
	d="
M268.509583,79.414963 
	C275.559113,77.386726 275.374908,77.406059 276.127228,84.573502 
	C277.970062,102.130096 272.840759,117.287567 260.903992,130.205750 
	C260.365234,130.788788 259.702637,131.257370 259.150146,131.733994 
	C251.688004,126.849541 251.193771,125.613419 252.839844,116.860435 
	C246.324158,115.594711 239.798584,114.327065 231.358932,112.687592 
	C234.733948,107.377586 236.884781,103.001022 239.937515,99.386131 
	C247.561737,90.357956 257.160858,83.917763 268.509583,79.414963 
z"/>
<path fill="#060606" opacity="1.000000" stroke="none" 
	d="
M73.347351,113.567070 
	C68.809685,103.516937 68.396797,93.294609 69.152977,82.900620 
	C69.429253,79.103020 70.775223,77.552101 74.861115,78.955124 
	C89.513359,83.986443 101.181435,92.838676 109.871849,105.633957 
	C110.421242,106.442863 110.790497,107.394920 111.125778,108.322929 
	C111.507652,109.379890 111.757263,110.484642 112.419144,112.820923 
	C105.704819,114.149620 99.336723,115.409805 92.382988,116.785881 
	C94.729469,122.708275 93.021935,127.985756 86.529549,131.851990 
	C80.347725,127.400513 76.824295,120.736511 73.347351,113.567070 
z"/>
<path fill="#070706" opacity="1.000000" stroke="none" 
	d="
M172.072540,222.993469 
	C176.065903,223.629608 179.839294,223.693939 183.086121,225.034073 
	C188.282684,227.178970 190.594528,232.295898 189.981598,238.142044 
	C189.418442,243.513428 185.944290,247.927948 180.457520,248.900940 
	C176.118637,249.670364 171.504318,250.056702 167.173279,249.454849 
	C158.377350,248.232574 154.795410,243.548096 155.315659,235.356125 
	C155.757339,228.401443 161.695358,223.269272 169.623215,222.997421 
	C170.286835,222.974670 170.951904,222.994247 172.072540,222.993469 
z"/>
</svg>